<?xml version="1.0" standalone="no"?>
<!DOCTYPE svg PUBLIC "-//W3C//DTD SVG 20010904//EN"
 "http://www.w3.org/TR/2001/REC-SVG-20010904/DTD/svg10.dtd">
<svg version="1.0" xmlns="http://www.w3.org/2000/svg"
 width="1000.000000pt" height="1000.000000pt" viewBox="0 0 1000.000000 1000.000000"
 preserveAspectRatio="xMidYMid meet">
<metadata>
Created by potrace 1.14, written by Peter Selinger 2001-2017
</metadata>
<g transform="translate(0.000000,1000.000000) scale(0.100000,-0.100000)"
fill="#000000" stroke="none">
<path d="M4568 8084 c-2 -1 -36 -5 -77 -8 -357 -30 -718 -139 -1006 -304 -576
-330 -908 -873 -1000 -1634 -7 -56 -7 -58 16 -59 115 -2 311 0 316 4 2 3 17
68 33 145 111 551 372 959 780 1224 239 155 480 237 780 264 131 11 169 13
355 13 186 1 250 -2 370 -15 57 -6 77 -9 143 -18 15 -2 73 -14 127 -26 578
-124 982 -438 1197 -930 63 -144 116 -319 133 -440 4 -25 10 -63 14 -85 4 -22
7 -61 7 -87 l-1 -48 55 -1 c203 -2 263 0 271 13 9 13 4 150 -6 211 -42 235
-164 552 -295 762 -270 434 -683 740 -1215 902 -176 53 -344 85 -570 109 -51
5 -423 13 -427 8z"/>
<path d="M5600 7198 c-18 -7 -21 -14 -19 -55 l3 -46 -59 -19 c-33 -11 -64 -24
-69 -29 -17 -16 -35 -10 -52 20 -24 40 -47 44 -89 12 -66 -49 -155 -173 -155
-216 0 -8 17 -23 38 -32 20 -10 38 -18 40 -19 1 0 -3 -25 -9 -55 -6 -29 -12
-67 -13 -83 -1 -28 -5 -30 -41 -32 -22 -2 -44 -10 -51 -18 -33 -45 66 -296
117 -296 9 0 31 11 47 25 l30 25 19 -23 c10 -12 39 -38 64 -58 l47 -35 -19
-36 c-18 -34 -18 -37 -1 -56 37 -41 243 -78 292 -52 20 11 22 17 16 56 l-6 43
43 12 c23 6 58 19 78 30 l37 18 27 -34 c14 -19 35 -35 46 -35 27 0 129 105
168 173 37 66 32 88 -23 107 -32 10 -34 13 -25 37 5 14 12 51 16 82 3 31 6 57
7 57 0 1 17 4 37 7 20 2 42 8 49 12 25 16 -10 159 -59 243 -39 66 -52 71 -96
37 -32 -24 -39 -26 -46 -12 -7 12 -62 56 -117 93 -2 1 4 16 12 33 28 53 22 67
-39 90 -76 28 -205 44 -245 29z m133 -285 c195 -55 258 -303 113 -446 -176
-173 -476 -31 -453 214 9 102 77 192 173 228 59 23 96 23 167 4z"/>
<path d="M3873 7034 c-98 -25 -194 -64 -275 -111 -87 -51 -98 -85 -48 -148
l30 -38 -74 -77 c-40 -42 -86 -98 -101 -124 -15 -25 -29 -46 -31 -46 -3 0 -22
9 -44 20 -78 40 -106 21 -148 -100 -29 -84 -49 -185 -56 -282 -3 -47 -2 -48
26 -49 15 0 120 0 233 0 113 0 218 0 234 0 24 1 28 5 26 26 -8 64 41 193 101
273 67 87 209 158 334 166 232 15 454 -173 477 -404 3 -30 6 -56 8 -58 2 -2
369 -5 473 -3 l42 1 -1 43 c-1 83 -30 108 -107 96 -26 -4 -48 -6 -49 -5 -1 1
-4 15 -7 31 -15 79 -34 135 -73 214 l-27 53 29 22 c81 58 83 83 19 162 -68 83
-128 137 -222 201 -144 96 -177 98 -219 12 -17 -36 -26 -43 -45 -41 -12 2 -27
7 -33 12 -14 10 -130 31 -205 35 -25 2 -48 4 -51 4 -3 1 -5 16 -4 34 3 44 -19
97 -42 99 -62 5 -95 2 -170 -18z"/>
<path d="M4023 6331 c-95 -32 -166 -115 -178 -209 -5 -42 -5 -42 28 -43 46 0
372 0 436 0 l54 1 -7 47 c-11 86 -66 156 -149 193 -62 28 -124 31 -184 11z"/>
<path d="M2431 5704 c-25 -21 -31 -33 -31 -65 0 -75 54 -117 124 -98 45 12 66
43 66 95 0 35 -5 47 -31 68 -19 17 -43 26 -64 26 -21 0 -45 -9 -64 -26z"/>
<path d="M4248 5700 c-10 -4 -13 -55 -12 -218 l0 -212 -40 39 c-117 114 -311
112 -430 -6 -86 -84 -120 -175 -120 -323 0 -124 17 -192 69 -271 70 -106 174
-157 299 -147 77 7 129 30 179 80 21 21 40 38 42 38 1 0 2 -24 1 -52 l-1 -53
80 -3 80 -3 -1 563 c-1 310 -2 565 -3 568 -1 7 -127 7 -143 0z m-144 -464 c79
-38 126 -122 130 -233 6 -159 -45 -256 -154 -293 -171 -58 -304 108 -268 335
26 165 161 254 292 191z"/>
<path d="M5232 5644 c-71 -18 -110 -39 -155 -83 -72 -68 -99 -171 -71 -273 27
-102 74 -145 280 -247 150 -75 169 -90 189 -147 24 -71 -18 -150 -92 -175 -39
-12 -132 -16 -185 -6 -54 10 -143 45 -172 68 l-26 20 0 -89 0 -90 58 -21 c75
-28 92 -31 190 -38 255 -17 416 110 407 320 -7 136 -60 191 -295 305 -149 72
-181 101 -187 169 -5 60 20 104 74 131 69 34 215 25 307 -19 22 -10 41 -17 43
-15 7 7 6 143 -1 154 -6 10 -41 22 -111 39 -49 12 -203 10 -253 -3z"/>
<path d="M1089 5613 c-1 -21 -2 -51 -4 -68 -1 -16 -5 -73 -9 -125 -4 -52 -9
-115 -11 -140 -4 -41 -7 -78 -20 -255 -3 -33 -7 -85 -10 -115 -2 -30 -7 -91
-10 -135 -3 -44 -8 -108 -11 -142 l-5 -63 80 0 c94 0 87 -10 96 140 4 58 8
123 10 145 2 22 7 85 10 140 4 55 9 116 10 135 1 19 6 89 10 155 4 66 8 121 9
122 1 1 30 -83 65 -185 35 -103 100 -287 144 -410 l80 -223 66 3 65 3 68 180
c38 99 79 209 92 245 13 36 43 117 65 180 23 63 49 136 58 163 18 52 26 53 29
4 1 -32 11 -155 19 -252 2 -27 7 -86 11 -130 4 -44 8 -93 9 -110 2 -16 7 -68
11 -115 4 -47 8 -94 10 -105 1 -11 3 -35 3 -52 l1 -33 84 0 c80 0 83 1 81 23
-2 12 -6 56 -9 97 -4 41 -9 93 -11 115 -3 22 -7 67 -9 100 -5 59 -12 134 -21
230 -2 28 -7 79 -10 115 -3 36 -8 83 -10 105 -2 22 -7 74 -11 115 -4 41 -8 84
-9 95 -1 11 -3 35 -4 53 l-1 33 -102 -3 -101 -3 -22 -60 c-12 -33 -26 -71 -32
-85 -21 -51 -185 -496 -216 -586 -18 -52 -34 -94 -37 -94 -3 0 -19 39 -34 88
-26 79 -194 547 -246 685 l-21 57 -100 0 -99 0 -1 -37z"/>
<path d="M3188 5395 c-2 -2 -19 -5 -38 -8 -19 -2 -54 -14 -76 -25 -41 -21
-102 -82 -106 -105 -1 -7 -4 19 -7 57 l-6 70 -76 0 -76 1 0 -407 0 -408 79 0
78 0 1 238 c0 278 1 281 32 341 61 119 213 144 291 48 l31 -39 2 -281 c1 -155
2 -288 2 -294 1 -9 24 -13 79 -13 l78 0 -1 313 c-2 303 -2 314 -25 365 -38 88
-106 133 -222 146 -20 2 -38 2 -40 1z"/>
<path d="M6210 5389 c-70 -8 -129 -38 -172 -89 l-35 -40 2 60 c0 35 -4 60 -10
61 -57 5 -138 2 -143 -5 -3 -5 -6 -259 -6 -563 l-1 -554 80 3 80 3 0 211 0
211 35 -38 c72 -77 173 -104 292 -80 105 22 205 123 244 245 20 61 27 223 13
286 -44 200 -190 311 -379 289z m110 -159 c76 -39 120 -138 115 -265 -3 -99
-27 -166 -76 -210 -48 -43 -80 -57 -135 -57 -82 0 -158 54 -195 137 -28 65
-31 196 -5 272 42 126 179 183 296 123z"/>
<path d="M6925 5384 c-67 -13 -124 -33 -126 -42 -3 -19 -5 -138 -2 -144 2 -4
18 2 37 13 59 35 135 52 212 47 85 -6 126 -30 144 -84 16 -49 20 -124 6 -125
-6 0 -56 -2 -111 -3 -55 -2 -115 -6 -134 -10 -94 -22 -180 -86 -200 -150 -53
-162 48 -312 216 -321 97 -5 172 20 221 73 l22 25 0 -46 0 -47 78 0 79 0 -2
293 c-1 256 -3 299 -20 350 -29 92 -97 152 -195 172 -56 12 -161 12 -225 -1z
m271 -453 c7 -1 10 -26 9 -70 -4 -114 -47 -163 -151 -169 -93 -6 -139 24 -151
99 -6 39 21 91 58 113 17 10 62 21 102 25 63 5 83 6 133 2z"/>
<path d="M7860 5389 c-147 -28 -275 -151 -313 -299 -14 -53 -15 -177 -3 -230
24 -105 109 -213 205 -261 95 -48 237 -57 341 -22 l55 18 3 72 3 72 -48 -21
c-37 -17 -68 -22 -133 -22 -75 -1 -91 2 -138 28 -193 107 -177 426 27 514 56
24 185 21 244 -5 l47 -22 0 74 0 73 -50 17 c-58 19 -176 26 -240 14z"/>
<path d="M2428 5380 c-10 -4 -13 -80 -12 -395 1 -214 2 -396 3 -402 1 -9 24
-13 79 -13 l77 0 0 405 c0 265 -3 405 -10 406 -73 4 -126 4 -137 -1z"/>
<path d="M8550 5381 c-132 -43 -221 -146 -251 -291 -15 -72 -6 -223 16 -280
42 -105 131 -190 239 -226 79 -27 253 -24 329 5 l57 22 0 70 c0 38 -2 69 -5
69 -2 0 -22 -9 -43 -20 -82 -43 -215 -47 -303 -9 -53 23 -103 73 -125 125 -28
67 -41 64 250 64 l265 0 7 46 c4 26 4 77 0 115 -13 139 -71 236 -173 286 -47
23 -72 28 -147 30 -50 1 -102 -1 -116 -6z m190 -136 c31 -16 74 -67 84 -101 3
-11 8 -41 11 -65 l4 -44 -194 0 -195 0 0 25 c0 14 11 48 24 75 40 85 99 125
184 125 29 0 66 -7 82 -15z"/>
<path d="M3216 3823 c99 -153 115 -231 109 -548 -2 -126 -6 -243 -9 -260 -2
-16 -8 -54 -11 -84 -4 -29 -8 -63 -10 -75 -2 -11 -6 -39 -9 -61 -4 -22 -9 -52
-12 -66 -4 -22 0 -28 23 -37 15 -6 222 -82 458 -168 237 -86 473 -172 525
-191 52 -19 106 -38 120 -43 14 -4 86 -30 160 -58 137 -51 334 -123 697 -255
l202 -74 6 26 c12 55 16 78 21 121 3 24 7 47 9 50 2 4 6 60 10 126 11 222 18
275 51 374 37 109 127 218 224 269 147 78 266 100 640 116 366 16 508 44 598
120 54 45 64 77 73 221 7 120 10 138 41 205 19 41 53 106 76 144 29 46 42 80
42 104 0 39 -31 98 -55 107 -8 4 -12 10 -9 15 3 5 -843 9 -2010 9 l-2016 0 56
-87z"/>
</g>
</svg>
